<?xml version="1.0" encoding="UTF-8"?>
<svg width="275px" height="32px" viewBox="0 0 275 32" version="1.1" xmlns="http://www.w3.org/2000/svg" xmlns:xlink="http://www.w3.org/1999/xlink">
    <title>kontena logo</title>
    <desc>Created with Sketch.</desc>
    <defs>
        <linearGradient x1="20.9347085%" y1="31.420567%" x2="105.845274%" y2="118.546154%" id="linearGradient-1">
            <stop stop-color="#FF4800" offset="0%"></stop>
            <stop stop-color="#FFEF00" offset="100%"></stop>
        </linearGradient>
    </defs>
    <g id="Page-1" stroke="none" stroke-width="1" fill="none" fill-rule="evenodd">
        <g id="r" transform="translate(-60.000000, -78.000000)">
            <g id="Group" transform="translate(60.000000, 78.000000)">
                <circle id="Oval" fill="url(#linearGradient-1)" cx="16" cy="16" r="16"></circle>
                <path d="M22.8377797,10.1785545 L18.7110927,14.3364161 C18.3424401,14.7078536 18.3225154,15.3007032 18.6653974,15.6960543 L23.5644722,21.3448027 C23.9263277,21.7620306 23.8814395,22.3936024 23.4642117,22.7554578 C23.2823631,22.9131724 23.0497275,23 22.8090144,23 L9.34826595,23 C8.7959812,23 8.34826595,22.5522847 8.34826595,22 C8.34826595,21.901666 8.3627699,21.8038697 8.39130956,21.7097683 L11.7303469,10.7002443 C11.8413164,10.334354 12.1512072,10.0637663 12.5287165,10.003131 L21.9694303,8.4867685 C22.5147259,8.39918341 23.0277771,8.77023109 23.1153622,9.3155267 C23.1660381,9.63102969 23.0628816,9.9517521 22.8377797,10.1785545 Z" id="Polygon" fill="#FFFFFF"></path>
                <text id="Website-of-Kontena" font-family="Nunito-ExtraBold, Nunito" font-size="24" font-weight="600" letter-spacing="1.02">
                    <tspan x="42.688" y="24" fill="#000000">W</tspan>
                    <tspan x="70.468" y="24" font-family="Nunito-Light, Nunito" font-weight="300" fill="#000000">ebsite</tspan>
                    <tspan x="140.284" y="24" fill="#000000"> </tspan>
                    <tspan x="148" y="24" font-family="Nunito-Light, Nunito" font-weight="300" fill="#000000">of</tspan>
                    <tspan x="170.68" y="24" fill="#000000"> </tspan>
                    <tspan x="178.396" y="24" fill="#FF6700">K</tspan>
                    <tspan x="195.688" y="24" font-family="Nunito-SemiBold, Nunito" font-weight="500" fill="#FF6700">ontena</tspan>
                </text>
            </g>
        </g>
    </g>
</svg>